<svg xmlns="http://www.w3.org/2000/svg" version="1.1" xmlns:xlink="http://www.w3.org/1999/xlink" xmlns:svgjs="http://svgjs.dev/svgjs" width="1500" height="1500" viewBox="0 0 1500 1500"><rect width="1500" height="1500" fill="#6b3245"></rect><g transform="matrix(0.6666666666666666,0,0,0.6666666666666666,249.39393939393938,569.1717123596517)"><svg viewBox="0 0 396 143" data-background-color="#6b3245" preserveAspectRatio="xMidYMid meet" height="541" width="1500" xmlns="http://www.w3.org/2000/svg" xmlns:xlink="http://www.w3.org/1999/xlink"><g id="tight-bounds" transform="matrix(1,0,0,1,0.2400000000000091,0.1962434359606675)"><svg viewBox="0 0 395.52 142.6075131280787" height="142.6075131280787" width="395.52"><g><svg viewBox="0 0 664.3685146655948 239.54273279999992" height="142.6075131280787" width="395.52"><g transform="matrix(1,0,0,1,268.8485146655949,68.05676037144364)"><svg viewBox="0 0 395.52 103.42921205711264" height="103.42921205711264" width="395.52"><g id="textblocktransform"><svg viewBox="0 0 395.52 103.42921205711264" height="103.42921205711264" width="395.52" id="textblock"><g><svg viewBox="0 0 395.52 103.42921205711264" height="103.42921205711264" width="395.52"><g transform="matrix(1,0,0,1,0,0)"><svg width="395.52" viewBox="0.75 -40.5 189.08 49.45" height="103.42921205711264" data-palette-color="#fb6968"><path d="M13 0L6.45 0 0.75-28.9 6.15-28.9 9.7-5.65 13.3-28.9 18.5-28.9 13 0ZM27.15 0.4L27.15 0.4Q25.45 0.4 24.15-0.58 22.85-1.55 22.1-3.08 21.35-4.6 21.35-6.3L21.35-6.3Q21.35-9 22.25-10.85 23.15-12.7 24.72-13.98 26.3-15.25 28.37-16.2 30.45-17.15 32.75-18.05L32.75-18.05 32.75-20.1Q32.75-21.85 32.55-23 32.35-24.15 31.72-24.73 31.1-25.3 29.85-25.3L29.85-25.3Q28.75-25.3 28.07-24.8 27.4-24.3 27.1-23.38 26.8-22.45 26.8-21.2L26.8-21.2 26.8-19.75 21.5-19.95Q21.6-24.75 23.7-27.03 25.8-29.3 30.2-29.3L30.2-29.3Q34.5-29.3 36.3-26.95 38.1-24.6 38.1-20.15L38.1-20.15 38.1-6.95Q38.1-5.6 38.17-4.35 38.25-3.1 38.37-2.02 38.5-0.95 38.6 0L38.6 0 33.7 0Q33.55-0.8 33.32-2.02 33.1-3.25 33-4.25L33-4.25Q32.5-2.55 31.07-1.07 29.65 0.4 27.15 0.4ZM29.25-4.2L29.25-4.2Q30.05-4.2 30.75-4.65 31.45-5.1 32-5.68 32.55-6.25 32.75-6.6L32.75-6.6 32.75-14.8Q31.5-14.1 30.4-13.4 29.3-12.7 28.47-11.93 27.65-11.15 27.17-10.18 26.7-9.2 26.7-7.95L26.7-7.95Q26.7-6.2 27.35-5.2 28-4.2 29.25-4.2ZM48.59 0L43.25 0 43.25-28.9 48.59-28.9 48.59-26.05Q50.05-27.4 51.8-28.35 53.55-29.3 55.65-29.3L55.65-29.3Q57.4-29.3 58.32-28.4 59.25-27.5 59.62-26.15 60-24.8 60-23.4L60-23.4 60 0 54.65 0 54.65-21.85Q54.65-23.4 54.2-24.25 53.75-25.1 52.34-25.1L52.34-25.1Q51.45-25.1 50.47-24.58 49.5-24.05 48.59-23.3L48.59-23.3 48.59 0ZM77.64 0L72.69 0 63.64-40.5 68.94-40.5 75.34-10.65 81.44-40.5 86.59-40.5 77.64 0ZM97.89 0.4L97.89 0.4Q94.69 0.4 92.84-0.9 90.99-2.2 90.22-4.6 89.44-7 89.44-10.25L89.44-10.25 89.44-18.65Q89.44-21.9 90.22-24.3 90.99-26.7 92.84-28 94.69-29.3 97.89-29.3L97.89-29.3Q101.09-29.3 102.92-28 104.74-26.7 105.52-24.3 106.29-21.9 106.29-18.65L106.29-18.65 106.29-10.25Q106.29-7 105.52-4.6 104.74-2.2 102.92-0.9 101.09 0.4 97.89 0.4ZM97.89-3.55L97.89-3.55Q99.44-3.55 100.07-4.45 100.69-5.35 100.82-6.83 100.94-8.3 100.94-9.9L100.94-9.9 100.94-18.95Q100.94-20.6 100.82-22.05 100.69-23.5 100.07-24.43 99.44-25.35 97.89-25.35L97.89-25.35Q96.34-25.35 95.69-24.43 95.04-23.5 94.92-22.05 94.79-20.6 94.79-18.95L94.79-18.95 94.79-9.9Q94.79-8.3 94.92-6.83 95.04-5.35 95.69-4.45 96.34-3.55 97.89-3.55ZM111.39 7.25L110.74 7.25 110.74 3.15Q112.69 3.15 113.84 2.98 114.99 2.8 115.49 2.33 115.99 1.85 115.99 1L115.99 1Q115.99 0.55 115.64-1 115.29-2.55 114.89-4.3L114.89-4.3 109.09-28.9 114.49-28.9 118.39-7.3 122.14-28.9 127.54-28.9 120.64 1.6Q120.19 3.7 118.99 4.93 117.79 6.15 115.91 6.7 114.04 7.25 111.39 7.25L111.39 7.25ZM135.99 0.4L135.99 0.4Q134.28 0.4 132.99-0.58 131.69-1.55 130.94-3.08 130.19-4.6 130.19-6.3L130.19-6.3Q130.19-9 131.09-10.85 131.99-12.7 133.56-13.98 135.14-15.25 137.21-16.2 139.28-17.15 141.59-18.05L141.59-18.05 141.59-20.1Q141.59-21.85 141.39-23 141.19-24.15 140.56-24.73 139.94-25.3 138.69-25.3L138.69-25.3Q137.59-25.3 136.91-24.8 136.24-24.3 135.94-23.38 135.64-22.45 135.64-21.2L135.64-21.2 135.64-19.75 130.34-19.95Q130.44-24.75 132.53-27.03 134.64-29.3 139.03-29.3L139.03-29.3Q143.34-29.3 145.14-26.95 146.94-24.6 146.94-20.15L146.94-20.15 146.94-6.95Q146.94-5.6 147.01-4.35 147.09-3.1 147.21-2.02 147.34-0.95 147.44 0L147.44 0 142.53 0Q142.39-0.8 142.16-2.02 141.94-3.25 141.84-4.25L141.84-4.25Q141.34-2.55 139.91-1.07 138.49 0.4 135.99 0.4ZM138.09-4.2L138.09-4.2Q138.89-4.2 139.59-4.65 140.28-5.1 140.84-5.68 141.39-6.25 141.59-6.6L141.59-6.6 141.59-14.8Q140.34-14.1 139.24-13.4 138.14-12.7 137.31-11.93 136.49-11.15 136.01-10.18 135.53-9.2 135.53-7.95L135.53-7.95Q135.53-6.2 136.19-5.2 136.84-4.2 138.09-4.2ZM159.58 8.95L159.58 8.95Q156.98 8.95 154.88 8.4 152.78 7.85 151.58 6.65 150.38 5.45 150.38 3.5L150.38 3.5Q150.38 2.1 150.98 1.05 151.58 0 152.53-0.78 153.48-1.55 154.53-2.05L154.53-2.05Q153.13-2.45 152.43-3.33 151.73-4.2 151.73-5.15L151.73-5.15Q151.73-6.75 152.58-7.9 153.43-9.05 154.93-10.4L154.93-10.4Q153.28-11.65 152.43-13.6 151.58-15.55 151.58-19L151.58-19Q151.58-22.4 152.51-24.68 153.43-26.95 155.26-28.13 157.08-29.3 159.73-29.3L159.73-29.3Q162.08-29.3 163.51-28.5 164.93-27.7 165.68-26.1L165.68-26.1Q165.93-26.5 167.03-27.48 168.13-28.45 169.58-29.1L169.58-29.1 170.38-29.45 171.73-26Q171.08-25.9 170.01-25.53 168.93-25.15 168.01-24.78 167.08-24.4 166.83-24.15L166.83-24.15Q167.18-23.3 167.46-21.7 167.73-20.1 167.73-18.85L167.73-18.85Q167.73-15.9 166.98-13.65 166.23-11.4 164.51-10.13 162.78-8.85 159.73-8.85L159.73-8.85Q159.08-8.85 158.33-8.95 157.58-9.05 156.98-9.2L156.98-9.2Q156.68-8.75 156.36-8.15 156.03-7.55 156.03-7L156.03-7Q156.03-6.45 156.61-6.13 157.18-5.8 158.43-5.7L158.43-5.7 162.93-5.3Q166.33-5 167.98-3.25 169.63-1.5 169.63 1.75L169.63 1.75Q169.63 4.1 168.53 5.73 167.43 7.35 165.21 8.15 162.98 8.95 159.58 8.95ZM159.98 4.75L159.98 4.75Q162.83 4.75 164.18 4.08 165.53 3.4 165.53 1.9L165.53 1.9Q165.53 1 165.21 0.4 164.88-0.2 164.03-0.55 163.18-0.9 161.58-1.05L161.58-1.05 157.03-1.45Q156.48-0.9 155.98-0.35 155.48 0.2 155.18 0.83 154.88 1.45 154.88 2.15L154.88 2.15Q154.88 3.45 155.98 4.1 157.08 4.75 159.98 4.75ZM159.73-12.6L159.73-12.6Q160.88-12.6 161.56-13.03 162.23-13.45 162.58-14.28 162.93-15.1 163.06-16.3 163.18-17.5 163.18-19L163.18-19Q163.18-20.5 163.06-21.73 162.93-22.95 162.61-23.83 162.28-24.7 161.61-25.15 160.93-25.6 159.78-25.6L159.78-25.6Q158.68-25.6 157.96-25.15 157.23-24.7 156.88-23.88 156.53-23.05 156.38-21.83 156.23-20.6 156.23-19L156.23-19Q156.23-17.65 156.36-16.48 156.48-15.3 156.86-14.45 157.23-13.6 157.93-13.1 158.63-12.6 159.73-12.6ZM181.63 0.4L181.63 0.4Q178.23 0.4 176.38-0.93 174.53-2.25 173.81-4.83 173.08-7.4 173.08-11.15L173.08-11.15 173.08-17.75Q173.08-21.6 173.83-24.15 174.58-26.7 176.46-28 178.33-29.3 181.63-29.3L181.63-29.3Q185.28-29.3 187.01-27.8 188.73-26.3 189.28-23.48 189.83-20.65 189.83-16.7L189.83-16.7 189.83-14.35 178.43-14.35 178.43-8.55Q178.43-6.8 178.76-5.7 179.08-4.6 179.81-4.08 180.53-3.55 181.68-3.55L181.68-3.55Q182.88-3.55 183.51-4.13 184.13-4.7 184.36-5.78 184.58-6.85 184.58-8.3L184.58-8.3 184.58-10.05 189.78-10.05 189.78-8.95Q189.78-4.6 187.93-2.1 186.08 0.4 181.63 0.4ZM178.43-18.8L178.43-17.25 184.58-17.25 184.58-19.85Q184.58-21.65 184.38-22.88 184.18-24.1 183.56-24.73 182.93-25.35 181.58-25.35L181.58-25.35Q180.28-25.35 179.61-24.75 178.93-24.15 178.68-22.73 178.43-21.3 178.43-18.8L178.43-18.8Z" opacity="1" transform="matrix(1,0,0,1,0,0)" fill="#fb6968" class="wordmark-text-0" data-fill-palette-color="primary" id="text-0"></path></svg></g></svg></g></svg></g></svg></g><g><svg viewBox="0 0 244.43135999999998 239.54273279999992" height="239.54273279999992" width="244.43135999999998"><g><svg xmlns="http://www.w3.org/2000/svg" xmlns:xlink="http://www.w3.org/1999/xlink" version="1.1" x="0" y="0" viewBox="29.999999999999996 30.3 30.000000000000004 29.399999999999995" style="enable-background:new 0 0 90 90;" xml:space="preserve" height="239.54273279999992" width="244.43135999999998" class="icon-icon-0" data-fill-palette-color="accent" id="icon-0"><g fill="#fec3d9" data-fill-palette-color="accent"><path d="M55.2 30.3c-2.5 0-4.5 1.9-4.8 4.3h-0.9v1h0.9c0.2 2.4 2.3 4.3 4.8 4.3 2.6 0 4.8-2.1 4.8-4.8S57.9 30.3 55.2 30.3zM55.2 38.9c-2.1 0-3.8-1.7-3.8-3.8 0-2.1 1.7-3.8 3.8-3.8S59 33 59 35.1C59 37.2 57.3 38.9 55.2 38.9z" fill="#fec3d9" data-fill-palette-color="accent"></path><path d="M34.8 50.1c-2.6 0-4.8 2.1-4.8 4.8s2.1 4.8 4.8 4.8c2.5 0 4.5-1.9 4.8-4.3h0.9v-1h-0.9C39.3 52 37.3 50.1 34.8 50.1zM34.8 58.7c-2.1 0-3.8-1.7-3.8-3.8 0-2.1 1.7-3.8 3.8-3.8s3.8 1.7 3.8 3.8C38.6 57 36.9 58.7 34.8 58.7z" fill="#fec3d9" data-fill-palette-color="accent"></path><rect x="42.7" y="54.4" width="1.6" height="1" fill="#fec3d9" data-fill-palette-color="accent"></rect><rect x="46.6" y="54.4" width="1.6" height="1" fill="#fec3d9" data-fill-palette-color="accent"></rect><rect x="50.5" y="54.4" width="1.6" height="1" fill="#fec3d9" data-fill-palette-color="accent"></rect><rect x="49.1" y="48.4" transform="matrix(0.7071 -0.7071 0.7071 0.7071 -20.3086 49.4672)" width="1" height="1.7" fill="#fec3d9" data-fill-palette-color="accent"></rect><rect x="37.7" y="37.1" transform="matrix(0.7071 -0.7071 0.7071 0.7071 -15.6161 38.14)" width="1" height="1.7" fill="#fec3d9" data-fill-palette-color="accent"></rect><rect x="40.6" y="39.9" transform="matrix(0.7071 -0.7071 0.7071 0.7071 -16.7893 40.9694)" width="1" height="1.7" fill="#fec3d9" data-fill-palette-color="accent"></rect><rect x="51.9" y="51.3" transform="matrix(0.7071 -0.7071 0.7071 0.7071 -21.4817 52.2993)" width="1" height="1.7" fill="#fec3d9" data-fill-palette-color="accent"></rect><rect x="46.2" y="45.6" transform="matrix(0.7071 -0.7071 0.7071 0.7071 -19.1355 46.6352)" width="1" height="1.7" fill="#fec3d9" data-fill-palette-color="accent"></rect><rect x="43.4" y="42.8" transform="matrix(0.7071 -0.7071 0.7071 0.7071 -17.9624 43.8029)" width="1" height="1.7" fill="#fec3d9" data-fill-palette-color="accent"></rect><rect x="38.4" y="34.6" width="1.6" height="1" fill="#fec3d9" data-fill-palette-color="accent"></rect><rect x="45.9" y="34.6" width="1.6" height="1" fill="#fec3d9" data-fill-palette-color="accent"></rect><rect x="42.1" y="34.6" width="1.6" height="1" fill="#fec3d9" data-fill-palette-color="accent"></rect><path d="M55.2 32.9c-0.9 0-1.7 0.7-1.7 1.7 0 0-0.1 1 1.7 2.7 1.8-1.8 1.7-2.7 1.7-2.7C56.9 33.6 56.1 32.9 55.2 32.9zM55.2 35.2c-0.4 0-0.7-0.3-0.7-0.7s0.3-0.7 0.7-0.7 0.7 0.3 0.7 0.7S55.6 35.2 55.2 35.2z" fill="#fec3d9" data-fill-palette-color="accent"></path><path d="M35 52.7c-0.1-0.1-0.2-0.1-0.3 0l-1.8 1.3c-0.1 0.1-0.2 0.2-0.2 0.3v2.1c0 0.1 0.1 0.2 0.2 0.2h1.3c0.1 0 0.2-0.1 0.2-0.2v-1.1c0-0.1 0.1-0.2 0.2-0.2h0.5c0.1 0 0.2 0.1 0.2 0.2v1.1c0 0.1 0.1 0.2 0.2 0.2h1.3c0.1 0 0.2-0.1 0.2-0.2v-2.1c0-0.1-0.1-0.3-0.2-0.3L35 52.7z" fill="#fec3d9" data-fill-palette-color="accent"></path><circle cx="55" cy="54.7" r="1.2" fill="#fec3d9" data-fill-palette-color="accent"></circle><circle cx="35.6" cy="35.3" r="1.2" fill="#fec3d9" data-fill-palette-color="accent"></circle></g></svg></g></svg></g></svg></g><defs></defs></svg><rect width="395.52" height="142.6075131280787" fill="none" stroke="none" visibility="hidden"></rect></g></svg></g></svg>